<?xml version="1.0" encoding="UTF-8"?>
<svg id="Layer_2" data-name="Layer 2" xmlns="http://www.w3.org/2000/svg" viewBox="0 0 128.66 102.47">
  <defs>
    <style>
      .cls-1 {
        fill: #588b8b;
        stroke-width: 0px;
      }
    </style>
  </defs>
  <g id="Layer_1-2" data-name="Layer 1">
    <g>
      <path class="cls-1" d="m128.12,83.04c-.47-.46-1.61-.95-3.89.92-1.44,1.18-3.4,3.47-5.78,6.76-.92,1.02-1.83,2.01-2.79,2.93-1.73,1.66-3.91,2.61-6.47,2.81-1.03.08-2.09.06-3.14-.07-1.34-.16-2.71-.45-4.04-.84-1.74-.51-3.04-1.5-3.98-3.03-.43-.7-.77-1.47-1.05-2.37-.31-1-.54-2.09-.7-3.43-.16-1.29-.38-2.56-.65-3.76-.63-2.79-1.58-5.4-2.85-7.76-.62-1.16-1.44-2.24-2.42-3.21-1.91-1.88-4.24-3.32-6.92-4.29-2.07-.75-4-1.07-5.88-1.01-1.13.04-2.14.25-3.09.63-.91.37-1.66.91-2.25,1.59-.63.75-.99,1.63-1.04,2.62-.04.69.11,1.4.45,2.12.36.76.89,1.44,1.62,2.08,1.74,1.51,3.93,2.5,6.71,3.01.94.18,1.8-.16,2.42-.96.3-.39.5-.84.59-1.35.13-.73-.07-1.41-.58-1.96-.33-.36-.72-.63-1.15-.82-.33-.14-.67-.27-1.01-.4l-.91-.34c-.45-.16-.89-.33-1.33-.51-.2-.08-.41-.21-.59-.36-.05-.04-.13-.1-.03-.36.07-.18.16-.22.29-.23.28-.02.51-.01.72.06.27.09.54.18.82.26.38.12.77.24,1.14.38,1.87.69,3.4,1.5,4.68,2.48,2.02,1.55,3.4,3.54,4.09,5.92.39,1.35.69,2.76.98,4.12l.28,1.3c.31,1.44.63,2.93,1.06,4.38.52,1.76,1.17,3.26,1.99,4.62,1.52,2.5,3.65,4.32,6.32,5.39,2.1.84,4.27,1.1,5.92,1.24.52.04,1.03.07,1.55.09h.18c.16.02.33.02.5.02.14,0,.29,0,.44-.02.35-.04.7-.06,1.04-.08.43-.02.86-.05,1.29-.11,1.71-.23,3.23-.65,4.65-1.3,1.92-.87,3.59-2.12,5.12-3.82.39-.44.78-.88,1.16-1.33.72-.83,1.47-1.7,2.26-2.49.58-.59,1.25-1.58,1.97-2.63.47-.69.96-1.41,1.45-2.06l.16-.21c1.32-1.71,1.63-3.75.7-4.66Z"/>
      <path class="cls-1" d="m77.62,5.41c.87.1,1.76.34,2.74.76,2.25.95,3.7,2.48,4.42,4.68.33,1.01.49,2.04.47,3.08,0,.71-.06,1.41-.11,2.12-.03.36-.05.73-.07,1.09-.06,1.13-.24,2.25-.42,3.2-.48,2.65-1.23,5.31-2.23,7.9-1.32,3.43-3.04,6.78-5.26,10.23-.62.97-1.27,1.92-1.93,2.87l-.81,1.17c-.26.38-.53.77-.7,1.24-.25.71-.12,1.37.38,1.93.36.4.77.68,1.23.86.21.08.44.13.71.15.61.06,1.19-.15,1.71-.63.41-.38.75-.74,1.04-1.12,2.72-3.61,4.92-7.09,6.7-10.64,1.41-2.8,2.54-5.64,3.35-8.42.71-2.41,1.17-4.66,1.43-6.88.11-.92.21-1.91.21-2.93,0-.89-.06-1.84-.22-3-.25-1.88-.81-3.75-1.67-5.55-.83-1.74-1.89-3.16-3.24-4.34C83.05,1.17,80.27.1,77.1,0c-.81-.03-1.68.07-2.67.28-2.71.58-5.04,1.91-6.95,3.95-1.51,1.61-2.51,3.48-2.99,5.55-.19.84-.23,1.69-.27,2.51v.27c-.09,1.8-.14,3.46-.15,5.08-.01,2.39-.02,4.78-.02,7.18,0,1.63,0,3.26,0,4.89v1.07c-.01,3.53-.02,7.17-.07,10.76-.06,4.39-.07,8.86-.07,13.18v4.24c-.01,2.24,0,4.48,0,6.73l.03,22.46c0,2.49,0,4.98,0,7.47,0,.76.09,1.49.27,2.17.31,1.17,1.11,1.88,2.3,2.05.18.03.35.04.51.04,1.35,0,2.39-.83,2.62-2.13.08-.49.12-1,.12-1.61V26.46c0-4.43,0-8.87.01-13.3,0-.82.08-1.68.24-2.54.18-.97.54-1.83,1.07-2.56,1.52-2.1,3.66-2.96,6.54-2.64Z"/>
      <path class="cls-1" d="m46.64,74.89c-.85.06-1.51.45-1.98,1.19-.24.38-.4.8-.52,1.38-.23,1.11-.37,2.22-.5,3.36-.19,1.64-.57,3.22-1.11,4.69-1.41,3.81-3.99,6.7-7.66,8.59-1.46.75-3.05,1.34-4.85,1.8-.87.22-1.74.41-2.59.55-.8.13-1.62.16-2.6.16-1.63,0-2.99-.02-4.39-.22-1.44-.2-2.67-.48-3.78-.84-3.46-1.12-6.13-3.16-7.96-6.05-.69-1.09-1.27-2.32-1.71-3.64-.63-1.87-1.03-3.89-1.17-5.98-.13-1.84-.05-3.64.24-5.34.39-2.32,1.14-4.6,2.23-6.79.91-1.82,2.03-3.58,3.42-5.38.34-.43.67-.86.98-1.31.36-.53.6-1.04.73-1.54.2-.79.12-1.45-.26-1.99-.5-.74-1.24-1.21-2.19-1.42-.82-.18-1.61.02-2.31.56-.42.33-.8.73-1.25,1.28-1.48,1.84-2.71,3.63-3.76,5.46-1.27,2.24-2.18,4.33-2.78,6.39-.58,2.01-.84,3.71-.83,5.36v.5s-.04,0-.04,0l.06,1.34c.03.71.07,1.41.09,2.12.03,1.07.11,2.2.26,3.56.17,1.65.43,3.11.78,4.47.69,2.64,1.72,4.82,3.16,6.67,2.88,3.69,6.6,6.24,11.04,7.57,1.34.4,2.75.69,4.2.87,1.26.15,2.38.22,3.43.22.08,0,.16,0,.23,0h.18c1.01-.01,2.06-.02,3.1-.1.91-.08,2.12-.19,3.33-.42,2.42-.46,4.7-1.21,6.76-2.25,5.78-2.9,9.85-7.3,12.09-13.07.63-1.62,1.05-3.27,1.24-4.91l.03-.22c.07-.61.15-1.23.18-1.86.03-.68.06-1.45-.08-2.22-.24-1.35-1.4-2.66-3.46-2.52Z"/>
      <path class="cls-1" d="m60.02,57.47c-.49-.21-1-.24-1.53-.09-.48.13-.87.3-1.2.52-.35.23-.69.47-1.01.73l-3.35,2.61c-1.68,1.31-3.36,2.62-5.04,3.92-.46.36-.97.71-1.5,1.04-3.03,1.9-6.46,2.87-10.47,2.96-.97.03-1.98-.09-2.86-.2-1.57-.18-3.14-.58-4.65-1.17-2.02-.8-3.77-1.92-5.2-3.33-.64-.63-1.06-1.21-1.34-1.81-.39-.85-.51-1.65-.35-2.44.15-.77.46-1.52.93-2.28.24-.39.55-.75.91-1.08.9-.82,2.06-1.2,3.54-1.15h.41c.72.03,1.46.05,2.17.14.91.11,1.8.23,2.67.42,3.93.85,7.27,2.73,9.93,5.59.27.3.51.54.78.76.3.25.61.45.91.59.73.35,1.48.3,2.17-.13.24-.15.47-.34.69-.56.91-.89,1.04-1.89.39-2.97-.22-.37-.51-.72-.84-1.07-2-2.06-4.28-3.74-6.76-5-3.66-1.86-7.69-2.84-11.98-2.91-1.17-.01-2.14.07-3.04.27-4.05.91-6.81,3.23-8.21,6.89-.56,1.49-.69,3.08-.38,4.73.3,1.59,1.02,3.06,2.2,4.49.85,1.03,1.88,1.95,3.15,2.81,2.92,1.97,6.19,3.34,9.72,4.07,1.41.29,2.56.42,3.63.4.08,0,.15,0,.23,0v.06l1.34-.07c.56-.03,1.13-.07,1.69-.08,1.35-.04,2.66-.21,3.65-.36,2.54-.38,4.94-1.24,7.14-2.53,1.16-.69,2.37-1.51,3.69-2.54,2.2-1.7,4.39-3.42,6.58-5.13l1.42-1.11c.31-.24.58-.5.81-.75.21-.24.41-.51.58-.82.29-.52.33-1.1.11-1.62-.34-.83-.92-1.43-1.74-1.78Z"/>
      <path class="cls-1" d="m78.42,52.9c-1.56,1.01-3.06,2.17-4.6,3.55-.49.44-.82.85-1.04,1.32-.34.69-.37,1.32-.11,1.9.38.84,1.01,1.45,1.88,1.79.61.24,1.24.21,1.93-.1.48-.21.91-.53,1.37-.99.84-.85,1.82-1.69,3.01-2.56,3.18-2.32,6.38-3.79,9.78-4.5l.1-.02c.77-.16,1.5-.31,2.24-.25.19.02.38.04.56.06l.41.04c.79.08,1.54.28,2.24.61,1.12.53,1.84,1.34,2.2,2.49.27.83.33,1.77.2,2.88-.1.82-.37,1.66-.83,2.58-.66,1.31-1.53,2.58-2.57,3.78-.52.6-1.06,1.18-1.6,1.77l-.49.53c-.3.33-.64.72-.83,1.24-.24.62-.22,1.23.03,1.81.31.7.83,1.24,1.55,1.59.35.17.7.26,1.05.26.3,0,.6-.06.9-.19.37-.16.7-.37,1-.63,1.49-1.33,2.71-2.61,3.75-3.91,1.57-1.98,2.67-3.98,3.35-6.11.39-1.2.74-2.51.68-3.91v-.27c0-.23.01-.47,0-.7-.02-.29-.08-.59-.16-.94-.7-2.88-2.43-5.04-5.14-6.42-1.48-.75-3.22-1.19-5.31-1.33-1.21-.08-2.32-.06-3.4.08-1.03.13-2.06.32-3.06.57-3.12.78-6.17,2.13-9.07,4.01Z"/>
    </g>
  </g>
</svg>